<?xml version="1.0" encoding="iso-8859-1"?>
<!-- Generator: Adobe Illustrator 17.1.0, SVG Export Plug-In . SVG Version: 6.00 Build 0)  -->
<!DOCTYPE svg PUBLIC "-//W3C//DTD SVG 1.1//EN" "http://www.w3.org/Graphics/SVG/1.1/DTD/svg11.dtd">
<svg version="1.1" id="Capa_1" xmlns="http://www.w3.org/2000/svg" xmlns:xlink="http://www.w3.org/1999/xlink" x="0px" y="0px"
	 viewBox="0 0 464 464" style="enable-background:new 0 0 464 464;" xml:space="preserve">
<g>
	<path d="M102,162.352c12.407,0,22.5-10.093,22.5-22.5s-10.093-22.5-22.5-22.5s-22.5,10.093-22.5,22.5S89.593,162.352,102,162.352z
		 M102,132.352c4.136,0,7.5,3.364,7.5,7.5s-3.364,7.5-7.5,7.5s-7.5-3.364-7.5-7.5S97.864,132.352,102,132.352z"/>
	<path d="M342,162.352c12.407,0,22.5-10.093,22.5-22.5s-10.093-22.5-22.5-22.5s-22.5,10.093-22.5,22.5S329.593,162.352,342,162.352z
		 M342,132.352c4.136,0,7.5,3.364,7.5,7.5s-3.364,7.5-7.5,7.5s-7.5-3.364-7.5-7.5S337.864,132.352,342,132.352z"/>
	<path d="M459.5,273.851c0-0.236-0.013-0.473-0.036-0.708c-0.009-0.094-0.024-0.185-0.036-0.278
		c-0.018-0.136-0.037-0.273-0.062-0.408c-0.021-0.114-0.048-0.226-0.075-0.338c-0.016-0.067-0.027-0.134-0.044-0.201l-19.747-74.05
		V47.5C439.5,21.308,418.191,0,392,0H72C45.809,0,24.5,21.308,24.5,47.5v150.369l-19.747,74.05
		c-0.018,0.066-0.028,0.134-0.044,0.201c-0.027,0.112-0.053,0.224-0.075,0.338c-0.026,0.135-0.044,0.272-0.062,0.408
		c-0.012,0.093-0.028,0.184-0.036,0.278c-0.022,0.235-0.036,0.471-0.036,0.708c0,0,0,0,0,0c0,0.003,0,0.006,0,0.009
		c0,0.214,0.009,0.428,0.028,0.642l6.535,75.15c2.239,25.75,25.089,46.7,50.937,46.7h14.5V456.5c0,4.142,3.358,7.5,7.5,7.5h296
		c4.142,0,7.5-3.358,7.5-7.5v-60.148H402c25.848,0,48.698-20.95,50.937-46.7l6.535-75.15c0.019-0.214,0.028-0.428,0.028-0.642
		C459.5,273.858,459.5,273.855,459.5,273.851C459.5,273.852,459.5,273.852,459.5,273.851z M39.247,200.785
		c0.168-0.63,0.253-1.28,0.253-1.933V47.5C39.5,29.579,54.08,15,72,15h320c17.92,0,32.5,14.579,32.5,32.5v151.352
		c0,0.652,0.085,1.302,0.253,1.933l17.484,65.567H265v-60h137c4.142,0,7.5-3.358,7.5-7.5s-3.358-7.5-7.5-7.5H265v-23.093
		c23.71-12.072,40-36.703,40-65.083c0-40.252-32.748-73-73-73s-73,32.748-73,73c0,28.38,16.29,53.011,40,65.083v23.093h-87
		c-4.142,0-7.5,3.358-7.5,7.5s3.358,7.5,7.5,7.5h87v60H21.762L39.247,200.785z M214,266.352v-60h36v60H214z M232,161.176
		c-31.981,0-58-26.019-58-58c0-31.981,26.019-58,58-58s58,26.019,58,58C290,135.157,263.981,161.176,232,161.176z M232,176.176
		c6.21,0,12.24-0.784,18-2.251v17.427h-36v-17.427C219.76,175.391,225.79,176.176,232,176.176z M76.5,338.852h-5v-15h5V338.852z
		 M372.5,449h-281V323.852h281V449z M392.5,323.852v15h-5v-15H392.5z M437.994,348.353c-1.556,17.888-18.039,33-35.994,33h-14.5
		v-27.5H400c4.142,0,7.5-3.358,7.5-7.5v-30c0-4.142-3.358-7.5-7.5-7.5H64c-4.142,0-7.5,3.358-7.5,7.5v30c0,4.142,3.358,7.5,7.5,7.5
		h12.5v27.5H62c-17.955,0-34.438-15.112-35.994-33l-5.826-67h423.639L437.994,348.353z"/>
	<path d="M62,206.352h20c4.142,0,7.5-3.358,7.5-7.5s-3.358-7.5-7.5-7.5H62c-4.142,0-7.5,3.358-7.5,7.5S57.858,206.352,62,206.352z"
		/>
	<path d="M327,105.676h70c4.142,0,7.5-3.358,7.5-7.5V47.996c0-4.142-3.358-7.5-7.5-7.5h-70c-4.142,0-7.5,3.358-7.5,7.5v50.179
		C319.5,102.318,322.858,105.676,327,105.676z M334.5,55.496h55v35.179h-55V55.496z"/>
	<path d="M206.898,85.573c1.919,0,3.839-0.732,5.303-2.197c7.645-7.645,19.177-10.196,29.382-6.5
		c3.897,1.411,8.195-0.603,9.606-4.498c1.411-3.895-0.603-8.195-4.498-9.606c-15.651-5.668-33.354-1.745-45.097,9.997
		c-2.929,2.929-2.929,7.677,0,10.606C203.059,84.841,204.979,85.573,206.898,85.573z"/>
	<path d="M272.402,88.484c-1.411-3.894-5.711-5.908-9.606-4.498c-3.895,1.411-5.908,5.711-4.498,9.606
		c3.696,10.204,1.145,21.738-6.5,29.382c-10.917,10.917-28.681,10.917-39.598,0c-2.929-2.929-7.678-2.929-10.606,0
		c-2.929,2.929-2.929,7.678,0,10.606c8.383,8.383,19.394,12.574,30.405,12.574c11.012,0,22.023-4.191,30.406-12.574
		C274.148,121.839,278.072,104.137,272.402,88.484z"/>
</g>
<g>
</g>
<g>
</g>
<g>
</g>
<g>
</g>
<g>
</g>
<g>
</g>
<g>
</g>
<g>
</g>
<g>
</g>
<g>
</g>
<g>
</g>
<g>
</g>
<g>
</g>
<g>
</g>
<g>
</g>
</svg>
